<?xml version="1.0" standalone="no"?>
<!DOCTYPE svg PUBLIC "-//W3C//DTD SVG 20010904//EN"
 "http://www.w3.org/TR/2001/REC-SVG-20010904/DTD/svg10.dtd">
<svg version="1.0" xmlns="http://www.w3.org/2000/svg"
 width="900.000000pt" height="900.000000pt" viewBox="0 0 900.000000 900.000000"
 preserveAspectRatio="xMidYMid meet">
<metadata>
Created by potrace 1.10, written by Peter Selinger 2001-2011
</metadata>
<g transform="translate(0.000000,900.000000) scale(0.100000,-0.100000)"
fill="#000000" stroke="none">
<path d="M1057 8986 c-3 -8 -25 -17 -49 -20 -24 -4 -68 -14 -98 -23 -468 -136
-802 -501 -899 -981 -15 -76 -15 -6868 0 -6944 82 -406 335 -733 699 -905 91
-42 118 -53 175 -69 157 -46 -5 -44 3604 -44 2420 0 3422 3 3465 11 353 64
672 282 852 584 79 133 145 305 159 418 4 31 11 47 21 47 12 0 14 453 14 3430
0 2977 -2 3430 -14 3430 -10 0 -17 16 -21 48 -26 208 -168 477 -344 653 -174
174 -445 318 -648 344 -36 5 -53 12 -53 21 0 21 -6855 21 -6863 0z m6827 -612
c243 -65 417 -238 487 -484 18 -63 19 -178 19 -3400 0 -3222 -1 -3337 -19
-3400 -57 -201 -180 -350 -356 -434 -151 -72 176 -66 -3526 -66 -3221 0 -3336
1 -3399 19 -247 70 -410 234 -481 481 -18 63 -19 174 -19 3400 0 3222 1 3337
19 3400 69 243 239 414 476 481 56 16 295 17 3399 18 3054 1 3345 0 3400 -15z"/>
<path d="M2200 6596 c-116 -37 -210 -136 -238 -248 -9 -35 -12 -506 -12 -1835
0 -1897 -2 -1820 45 -1910 18 -36 88 -106 131 -132 78 -46 63 -45 929 -49 750
-3 826 -2 885 14 36 10 81 28 102 40 234 147 214 489 -35 607 l-58 27 -632 0
c-347 0 -638 4 -644 8 -10 6 -13 132 -13 542 0 294 0 541 0 548 0 9 113 12
533 12 560 0 596 2 687 47 76 37 143 117 173 207 26 76 22 146 -14 231 -34 83
-84 136 -171 182 l-53 28 -577 3 -578 3 0 22 c-2 464 1 962 7 968 5 5 296 9
648 11 638 3 640 3 686 25 103 50 175 142 200 256 10 48 10 70 -1 124 -27 135
-111 228 -245 270 -55 17 -1702 17 -1755 -1z"/>
<path d="M5112 5368 c-100 -40 -181 -131 -208 -235 -20 -78 -21 -2412 0 -2488
28 -106 85 -177 180 -223 58 -28 75 -32 151 -32 74 0 93 4 149 30 75 36 127
89 165 169 l26 56 6 885 c3 567 9 899 16 925 46 173 168 263 360 265 199 1
318 -85 371 -270 13 -48 16 -175 21 -940 7 -966 2 -899 65 -986 33 -45 90 -90
149 -116 61 -28 197 -25 262 6 93 43 162 121 190 213 22 73 22 1814 0 1960
-27 180 -83 316 -186 453 -86 114 -183 194 -313 254 -193 91 -467 123 -652 76
-86 -22 -200 -65 -225 -87 -8 -7 -19 -13 -23 -13 -4 0 -19 -9 -33 -20 -37 -29
-50 -25 -98 28 -64 71 -140 106 -240 109 -63 2 -91 -2 -133 -19z"/>
</g>
</svg>
