<?xml version="1.0" standalone="no"?>
<!DOCTYPE svg PUBLIC "-//W3C//DTD SVG 20010904//EN"
 "http://www.w3.org/TR/2001/REC-SVG-20010904/DTD/svg10.dtd">
<svg version="1.0" xmlns="http://www.w3.org/2000/svg"
 width="300.000000pt" height="300.000000pt" viewBox="0 0 300.000000 300.000000"
 preserveAspectRatio="xMidYMid meet">
<metadata>
Created by potrace 1.10, written by Peter Selinger 2001-2011
</metadata>
<g transform="translate(0.000000,300.000000) scale(0.100000,-0.100000)"
fill="#000000" stroke="none">
<path d="M510 2615 l0 -255 -255 0 -255 0 0 -1116 c0 -889 3 -1114 13 -1107 6
4 132 92 278 195 l267 188 966 0 966 0 0 235 c0 129 2 235 5 235 2 0 111 -76
242 -168 131 -92 244 -171 251 -176 9 -6 12 219 12 1108 l0 1116 -1245 0
-1245 0 0 -255z m2310 -776 l0 -860 -82 57 c-46 32 -117 82 -158 111 l-75 53
-907 0 -908 0 0 750 0 750 1065 0 1065 0 0 -861z m-2310 -229 l0 -580 900 0
900 0 0 -170 0 -170 -908 0 -907 0 -75 -53 c-41 -29 -112 -79 -158 -111 l-82
-57 0 860 0 861 165 0 165 0 0 -580z"/>
<path d="M2308 2149 l-3 -281 -115 276 -115 276 -107 0 -108 0 0 -475 0 -475
90 0 90 0 2 282 3 283 116 -275 115 -275 107 -3 107 -3 0 476 0 475 -90 0 -90
0 -2 -281z"/>
<path d="M1020 1950 l0 -470 290 0 290 0 0 85 0 85 -202 2 -203 3 0 100 0 100
158 3 158 3 -3 87 -3 87 -158 3 -158 3 3 102 3 102 203 3 202 2 0 85 0 85
-290 0 -290 0 0 -470z"/>
</g>
</svg>
