<?xml version="1.0" standalone="no"?>
<!DOCTYPE svg PUBLIC "-//W3C//DTD SVG 20010904//EN"
 "http://www.w3.org/TR/2001/REC-SVG-20010904/DTD/svg10.dtd">
<svg version="1.0" xmlns="http://www.w3.org/2000/svg"
 width="300.000000pt" height="300.000000pt" viewBox="0 0 300.000000 300.000000"
 preserveAspectRatio="xMidYMid meet">
<metadata>
Created by potrace 1.10, written by Peter Selinger 2001-2011
</metadata>
<g transform="translate(0.000000,300.000000) scale(0.050000,-0.050000)"
fill="#000000" stroke="none">
<path d="M2737 5981 c-324 -59 -593 -194 -863 -432 -232 -204 -228 -166 -39
-354 188 -187 157 -187 346 -7 479 458 1158 457 1641 -3 186 -177 156 -178
348 17 l160 161 -130 121 c-438 409 -967 588 -1463 497z"/>
<path d="M2782 5028 c-125 -45 -216 -108 -337 -232 l-105 -107 166 -165 165
-164 90 92 c175 182 282 185 459 16 l112 -107 164 165 164 165 -125 123 c-224
221 -511 302 -753 214z"/>
<path d="M1410 4192 c-221 -71 -396 -229 -469 -424 -66 -176 -64 -3145 2
-3322 65 -174 243 -344 422 -402 208 -67 3049 -69 3267 -2 178 55 358 226 425
404 66 178 68 3146 2 3323 -58 155 -205 310 -363 383 l-126 58 -1540 4 c-1205
3 -1557 -2 -1620 -22z m3051 -452 c40 -11 94 -43 120 -72 l49 -51 0 -1507 0
-1507 -49 -51 c-83 -90 -122 -92 -1581 -92 -1459 0 -1498 2 -1581 92 l-49 51
0 1507 0 1507 49 52 c27 28 76 60 110 70 86 25 2842 26 2932 1z"/>
<path d="M2760 3280 l0 -240 -470 0 -470 0 0 -230 0 -230 248 0 247 0 14 -90
c28 -188 150 -483 273 -663 l57 -83 -45 -30 c-25 -16 -121 -67 -215 -114 -93
-46 -172 -87 -175 -90 -9 -8 194 -410 207 -410 20 0 418 205 492 254 l77 51
77 -51 c74 -49 472 -254 492 -254 13 0 216 402 207 410 -3 3 -64 34 -136 70
-71 36 -168 87 -215 114 l-85 50 58 83 c123 180 245 475 273 663 l14 90 247 0
248 0 0 230 0 230 -470 0 -470 0 0 240 0 240 -240 0 -240 0 0 -240z m440 -737
c0 -88 -162 -463 -200 -463 -38 0 -200 375 -200 463 0 33 19 37 200 37 181 0
200 -4 200 -37z"/>
</g>
</svg>
