<?xml version="1.0" standalone="no"?>
<!DOCTYPE svg PUBLIC "-//W3C//DTD SVG 20010904//EN"
 "http://www.w3.org/TR/2001/REC-SVG-20010904/DTD/svg10.dtd">
<svg version="1.0" xmlns="http://www.w3.org/2000/svg"
 width="300.000000pt" height="300.000000pt" viewBox="0 0 300.000000 300.000000"
 preserveAspectRatio="xMidYMid meet">
<metadata>
Created by potrace 1.10, written by Peter Selinger 2001-2011
</metadata>
<g transform="translate(0.000000,300.000000) scale(0.100000,-0.100000)"
fill="#000000" stroke="none">
<path d="M120 2514 c-78 -34 -110 -86 -110 -177 0 -50 5 -71 23 -98 64 -95
210 -107 289 -23 47 50 61 97 48 160 -25 119 -143 184 -250 138z m127 -44 c54
-24 83 -70 83 -132 0 -54 -33 -102 -87 -124 -74 -32 -139 -8 -192 70 l-32 45
26 50 c30 60 59 88 100 100 45 13 56 12 102 -9z"/>
<path d="M680 2514 c-42 -18 -77 -49 -96 -86 -18 -35 -18 -131 0 -166 19 -36
65 -78 99 -91 19 -8 339 -11 1005 -11 929 0 979 1 1018 19 136 62 137 264 2
330 -44 21 -46 21 -1019 21 -847 -1 -979 -3 -1009 -16z m1992 -36 c59 -17 93
-67 93 -134 0 -61 -23 -100 -76 -126 -32 -17 -100 -18 -1002 -18 -1064 0 -997
-4 -1052 62 -24 29 -27 38 -23 90 3 47 10 64 33 88 16 17 43 35 60 39 49 15
1919 13 1967 -1z"/>
<path d="M146 1678 c-48 -10 -101 -49 -121 -88 -19 -38 -19 -142 0 -180 23
-45 76 -79 139 -91 52 -9 62 -8 104 13 59 29 102 90 109 151 4 36 0 55 -22 95
-15 27 -40 59 -56 71 -37 27 -103 40 -153 29z m121 -59 c42 -26 63 -66 63
-121 0 -154 -199 -191 -277 -53 -29 51 -29 67 2 116 49 77 140 102 212 58z"/>
<path d="M706 1679 c-156 -37 -188 -258 -48 -337 l40 -22 1080 0 c747 0 1089
3 1109 11 67 25 104 85 104 169 1 80 -29 131 -96 168 -27 16 -124 17 -1090 19
-616 1 -1076 -3 -1099 -8z m2174 -54 c41 -25 89 -90 90 -123 0 -32 -45 -99
-83 -122 -31 -19 -57 -20 -1105 -20 -1185 0 -1112 -4 -1152 63 -39 63 -17 166
42 198 13 7 41 16 63 20 22 4 506 6 1075 5 1023 -1 1035 -1 1070 -21z"/>
<path d="M115 825 c-42 -20 -59 -35 -84 -75 -25 -42 -29 -136 -7 -178 42 -80
150 -123 233 -91 62 23 123 109 123 174 0 65 -61 151 -123 174 -39 15 -106 13
-142 -4z m128 -39 c18 -7 45 -28 60 -45 38 -46 39 -126 1 -171 -77 -91 -197
-71 -254 41 -26 50 -25 57 9 110 44 71 113 95 184 65z"/>
<path d="M675 825 c-70 -33 -105 -87 -105 -162 0 -89 31 -140 105 -174 38 -17
79 -19 685 -19 609 0 647 1 686 19 43 19 86 68 99 110 23 77 -8 167 -72 211
l-37 25 -665 2 c-558 2 -671 0 -696 -12z m1354 -40 c51 -26 81 -71 81 -121 0
-56 -20 -95 -62 -126 l-33 -23 -655 0 c-615 0 -658 1 -683 18 -92 60 -87 204
8 252 45 22 1302 22 1344 0z"/>
</g>
</svg>
