<?xml version="1.0" standalone="no"?>
<!DOCTYPE svg PUBLIC "-//W3C//DTD SVG 20010904//EN"
 "http://www.w3.org/TR/2001/REC-SVG-20010904/DTD/svg10.dtd">
<svg version="1.0" xmlns="http://www.w3.org/2000/svg"
 width="300.000000pt" height="300.000000pt" viewBox="0 0 300.000000 300.000000"
 preserveAspectRatio="xMidYMid meet">
<metadata>
Created by potrace 1.10, written by Peter Selinger 2001-2011
</metadata>
<g transform="translate(0.000000,300.000000) scale(0.050000,-0.050000)"
fill="#000000" stroke="none">
<path d="M1030 5981 c-91 -22 -143 -61 -188 -143 -42 -73 -42 -77 -42 -2838
l0 -2765 42 -74 c92 -163 -81 -151 2158 -151 2239 0 2066 -12 2158 151 42 74
42 76 42 2428 l0 2353 -493 494 c-271 272 -517 510 -545 529 -55 37 -2984 52
-3132 16z m2970 -563 c0 -595 23 -618 626 -618 l374 0 0 -2269 c0 -2035 -3
-2271 -31 -2300 -48 -48 -3890 -48 -3938 0 -48 48 -48 5490 0 5538 28 28 192
31 1500 31 l1469 0 0 -382z m538 -88 l328 -330 -301 0 c-389 0 -365 -24 -365
361 0 165 2 299 5 299 3 -1 153 -149 333 -330z"/>
<path d="M1657 4257 c-203 -118 -201 -400 3 -515 257 -144 542 141 398 398
-83 147 -260 199 -401 117z m212 -188 c60 -61 16 -169 -69 -169 -48 0 -100 52
-100 100 0 48 52 100 100 100 20 0 51 -14 69 -31z"/>
<path d="M2500 4000 l0 -100 1000 0 1000 0 0 100 0 100 -1000 0 -1000 0 0
-100z"/>
<path d="M1666 3261 c-216 -98 -216 -424 0 -522 355 -161 619 349 268 519
-106 52 -160 52 -268 3z m195 -182 c25 -13 39 -42 39 -79 0 -90 -105 -133
-169 -69 -87 88 19 208 130 148z"/>
<path d="M2500 3000 l0 -100 1000 0 1000 0 0 100 0 100 -1000 0 -1000 0 0
-100z"/>
<path d="M1657 2257 c-203 -118 -201 -400 3 -515 143 -80 315 -29 398 118 145
258 -145 545 -401 397z m212 -188 c17 -18 31 -49 31 -69 0 -20 -14 -51 -31
-69 -18 -17 -49 -31 -69 -31 -20 0 -51 14 -69 31 -17 18 -31 49 -31 69 0 20
14 51 31 69 18 17 49 31 69 31 20 0 51 -14 69 -31z"/>
<path d="M2500 2000 l0 -100 1000 0 1000 0 0 100 0 100 -1000 0 -1000 0 0
-100z"/>
<path d="M1657 1257 c-203 -118 -201 -400 3 -515 257 -144 542 141 398 398
-83 147 -260 199 -401 117z m212 -188 c60 -61 16 -169 -69 -169 -48 0 -100 52
-100 100 0 85 108 129 169 69z"/>
<path d="M2500 1000 l0 -100 1000 0 1000 0 0 100 0 100 -1000 0 -1000 0 0
-100z"/>
</g>
</svg>
