<?xml version="1.0" standalone="no"?>
<!DOCTYPE svg PUBLIC "-//W3C//DTD SVG 20010904//EN"
 "http://www.w3.org/TR/2001/REC-SVG-20010904/DTD/svg10.dtd">
<svg version="1.0" xmlns="http://www.w3.org/2000/svg"
 width="192.000000pt" height="192.000000pt" viewBox="0 0 192.000000 192.000000"
 preserveAspectRatio="xMidYMid meet">
<metadata>
Created by potrace 1.10, written by Peter Selinger 2001-2011
</metadata>
<g transform="translate(0.000000,192.000000) scale(0.100000,-0.100000)"
fill="#000000" stroke="none">
<path d="M26 1769 l-26 -20 0 -769 0 -769 26 -20 c27 -21 31 -21 925 -21 l897
0 30 25 c16 13 32 22 36 18 3 -3 6 342 6 767 0 425 -3 770 -6 767 -4 -4 -20 5
-36 18 l-30 25 -897 0 c-894 0 -898 0 -925 -21z m1819 -789 l0 -745 -895 0
-895 0 -3 735 c-1 404 0 741 3 748 3 10 188 12 897 10 l893 -3 0 -745z"/>
<path d="M114 1596 c-13 -35 3 -47 58 -44 49 3 53 5 53 28 0 23 -4 25 -53 28
-40 2 -54 -1 -58 -12z"/>
<path d="M312 1587 l-22 -23 0 -585 0 -586 23 -21 23 -22 675 0 676 0 21 23
22 23 0 585 0 586 -23 21 -23 22 -675 0 -676 0 -21 -23z m1353 -607 l0 -565
-655 0 -655 0 -3 555 c-1 305 0 561 3 568 3 10 140 12 657 10 l653 -3 0 -565z"/>
<path d="M597 1424 c-4 -4 -7 -29 -7 -57 0 -45 -4 -52 -45 -93 -39 -38 -45
-49 -45 -85 0 -36 6 -48 40 -81 34 -31 48 -38 82 -38 34 0 47 6 79 39 33 32
39 45 39 80 0 36 -6 47 -44 85 -41 39 -45 48 -48 97 -3 46 -6 54 -23 57 -12 2
-24 0 -28 -4z m60 -196 c29 -27 29 -45 1 -75 -27 -29 -45 -29 -75 -1 -29 27
-29 45 -1 75 27 29 45 29 75 1z"/>
<path d="M957 1424 c-4 -4 -7 -97 -7 -207 l0 -199 -45 -44 c-39 -38 -45 -49
-45 -85 0 -36 6 -48 40 -81 34 -31 48 -38 82 -38 34 0 47 6 79 39 33 32 39 45
39 80 0 36 -6 47 -45 85 l-45 44 -2 203 c-3 197 -4 204 -23 207 -12 2 -24 0
-28 -4z m60 -496 c29 -27 29 -45 1 -75 -27 -29 -45 -29 -75 -1 -29 27 -29 45
-1 75 27 29 45 29 75 1z"/>
<path d="M1317 1424 c-4 -4 -7 -43 -7 -87 l0 -79 -45 -44 c-39 -38 -45 -49
-45 -85 0 -36 6 -48 40 -81 34 -31 48 -38 82 -38 34 0 47 6 79 39 33 32 39 45
39 80 0 36 -6 47 -45 85 l-44 43 -3 84 c-3 76 -5 84 -23 87 -12 2 -24 0 -28
-4z m60 -256 c29 -27 29 -45 1 -75 -27 -29 -45 -29 -75 -1 -29 27 -29 45 -1
75 27 29 45 29 75 1z"/>
<path d="M597 1004 c-4 -4 -7 -107 -7 -229 0 -185 3 -225 15 -235 8 -7 22 -10
30 -6 13 5 15 37 13 238 -3 226 -4 233 -23 236 -12 2 -24 0 -28 -4z"/>
<path d="M1317 944 c-4 -4 -7 -94 -7 -199 0 -158 3 -195 15 -205 8 -7 22 -10
30 -6 13 5 15 34 13 208 -3 196 -4 203 -23 206 -12 2 -24 0 -28 -4z"/>
<path d="M957 704 c-4 -4 -7 -40 -7 -79 0 -76 14 -103 45 -91 13 5 15 21 13
88 -3 75 -5 83 -23 86 -12 2 -24 0 -28 -4z"/>
<path d="M114 1446 c-13 -35 3 -47 58 -44 49 3 53 5 53 28 0 23 -4 25 -53 28
-40 2 -54 -1 -58 -12z"/>
<path d="M114 1296 c-13 -35 3 -47 58 -44 49 3 53 5 53 28 0 23 -4 25 -53 28
-40 2 -54 -1 -58 -12z"/>
<path d="M114 1146 c-13 -35 3 -47 58 -44 49 3 53 5 53 28 0 23 -4 25 -53 28
-40 2 -54 -1 -58 -12z"/>
<path d="M114 996 c-13 -35 3 -47 58 -44 49 3 53 5 53 28 0 23 -4 25 -53 28
-40 2 -54 -1 -58 -12z"/>
<path d="M114 846 c-13 -35 3 -47 58 -44 49 3 53 5 53 28 0 23 -4 25 -53 28
-40 2 -54 -1 -58 -12z"/>
<path d="M114 696 c-13 -35 3 -47 58 -44 49 3 53 5 53 28 0 23 -4 25 -53 28
-40 2 -54 -1 -58 -12z"/>
<path d="M114 546 c-13 -35 3 -47 58 -44 49 3 53 5 53 28 0 23 -4 25 -53 28
-40 2 -54 -1 -58 -12z"/>
<path d="M114 396 c-13 -35 3 -47 58 -44 49 3 53 5 53 28 0 23 -4 25 -53 28
-40 2 -54 -1 -58 -12z"/>
</g>
</svg>
