<?xml version="1.0" standalone="no"?>
<!DOCTYPE svg PUBLIC "-//W3C//DTD SVG 20010904//EN"
 "http://www.w3.org/TR/2001/REC-SVG-20010904/DTD/svg10.dtd">
<svg version="1.0" xmlns="http://www.w3.org/2000/svg"
 width="300.000000pt" height="300.000000pt" viewBox="0 0 300.000000 300.000000"
 preserveAspectRatio="xMidYMid meet">
<metadata>
Created by potrace 1.10, written by Peter Selinger 2001-2011
</metadata>
<g transform="translate(0.000000,300.000000) scale(0.100000,-0.100000)"
fill="#000000" stroke="none">
<path d="M285 2786 c-91 -29 -182 -100 -229 -180 -58 -99 -56 -64 -56 -1106 0
-1042 -2 -1007 56 -1106 35 -59 115 -131 182 -162 l57 -27 1205 0 1205 0 57
27 c67 31 147 103 182 162 58 99 56 64 56 1106 0 1042 2 1007 -56 1106 -35 59
-115 131 -182 162 l-57 27 -1190 2 c-940 1 -1198 -1 -1230 -11z m2370 -167
c53 -13 119 -67 145 -120 19 -37 20 -64 20 -999 0 -935 -1 -962 -20 -999 -26
-53 -92 -107 -145 -120 -62 -15 -2248 -15 -2310 0 -53 13 -119 67 -145 120
-19 37 -20 64 -20 999 0 935 1 962 20 999 25 50 91 107 138 119 54 15 2260 15
2317 1z"/>
<path d="M676 2425 l-26 -24 0 -174 0 -174 -48 -30 c-157 -97 -178 -305 -43
-426 23 -21 53 -42 67 -47 l24 -10 0 -470 0 -471 26 -24 c36 -33 87 -33 119 0
l25 24 0 471 0 470 24 10 c14 5 44 26 67 47 136 123 113 335 -47 429 l-44 26
0 174 c0 172 0 175 -25 199 -32 33 -83 33 -119 0z m121 -567 c29 -33 35 -57
22 -95 -11 -35 -51 -63 -88 -63 -12 0 -35 13 -53 29 -65 58 -28 151 61 151 26
0 44 -7 58 -22z"/>
<path d="M1443 2426 l-28 -24 -5 -470 -5 -470 -50 -34 c-115 -77 -153 -225
-90 -349 19 -35 82 -96 116 -109 l28 -12 3 -180 3 -180 28 -24 c36 -31 78 -31
114 0 l28 24 3 180 3 180 29 12 c36 15 95 71 115 109 23 46 36 120 29 167 -9
65 -61 143 -119 182 l-50 34 -5 470 -5 470 -28 24 c-16 13 -41 24 -57 24 -16
0 -41 -11 -57 -24z m125 -1162 c30 -34 29 -83 -3 -118 -53 -57 -155 -19 -155
58 0 86 101 125 158 60z"/>
<path d="M2205 2425 c-25 -24 -25 -27 -25 -199 l0 -174 -44 -26 c-160 -94
-183 -306 -47 -429 23 -21 53 -42 67 -47 l24 -10 0 -470 0 -471 25 -24 c32
-33 83 -33 119 0 l26 24 0 470 0 471 38 19 c85 44 142 137 141 231 0 101 -44
179 -131 233 l-48 30 0 174 0 174 -26 24 c-36 33 -87 33 -119 0z m121 -569
c41 -35 39 -89 -4 -127 -18 -16 -42 -29 -53 -29 -34 0 -78 32 -89 66 -29 87
75 152 146 90z"/>
</g>
</svg>
