<?xml version="1.0" standalone="no"?>
<!DOCTYPE svg PUBLIC "-//W3C//DTD SVG 20010904//EN"
 "http://www.w3.org/TR/2001/REC-SVG-20010904/DTD/svg10.dtd">
<svg version="1.0" xmlns="http://www.w3.org/2000/svg"
 width="192.000000pt" height="192.000000pt" viewBox="0 0 192.000000 192.000000"
 preserveAspectRatio="xMidYMid meet">
<metadata>
Created by potrace 1.10, written by Peter Selinger 2001-2011
</metadata>
<g transform="translate(0.000000,192.000000) scale(0.100000,-0.100000)"
fill="#000000" stroke="none">
<path d="M139 1641 l-29 -29 0 -662 0 -662 29 -29 29 -29 782 0 782 0 29 29
29 29 0 662 0 662 -29 29 -29 29 -782 0 -782 0 -29 -29z m1586 -691 l0 -655
-775 0 -775 0 -3 645 c-1 355 0 651 3 658 3 10 164 12 777 10 l773 -3 0 -655z"/>
<path d="M372 1347 c-22 -23 -22 -26 -22 -368 l0 -346 24 -22 c20 -19 33 -22
87 -19 61 3 64 4 64 28 0 23 -4 25 -55 30 l-55 5 0 325 0 325 55 5 c51 5 55 7
55 30 0 24 -3 25 -65 28 -58 2 -68 0 -88 -21z"/>
<path d="M1374 1355 c-12 -31 4 -44 58 -47 l53 -3 0 -325 0 -325 -55 -5 c-51
-5 -55 -7 -55 -30 0 -24 3 -25 64 -28 54 -3 67 0 87 19 l24 22 0 347 0 347
-23 21 c-19 18 -35 22 -85 22 -46 0 -64 -4 -68 -15z"/>
<path d="M594 1175 c-4 -8 -4 -22 0 -30 5 -13 48 -15 328 -13 l323 3 0 25 0
25 -323 3 c-280 2 -323 0 -328 -13z"/>
<path d="M594 995 c-4 -8 -4 -22 0 -30 5 -13 28 -15 148 -13 l143 3 0 25 0 25
-143 3 c-120 2 -143 0 -148 -13z"/>
<path d="M954 995 c-15 -38 2 -46 88 -43 81 3 83 4 83 28 0 24 -2 25 -83 28
-67 2 -83 0 -88 -13z"/>
<path d="M594 815 c-4 -8 -4 -22 0 -30 5 -13 51 -15 358 -13 l353 3 0 25 0 25
-353 3 c-307 2 -353 0 -358 -13z"/>
<path d="M234 457 c-3 -8 -4 -34 -2 -58 3 -39 6 -44 28 -44 24 0 25 3 25 55 0
49 -2 55 -23 58 -12 2 -24 -3 -28 -11z"/>
<path d="M384 457 c-3 -8 -4 -34 -2 -58 3 -39 6 -44 28 -44 24 0 25 3 25 55 0
49 -2 55 -23 58 -12 2 -24 -3 -28 -11z"/>
<path d="M534 457 c-3 -8 -4 -34 -2 -58 3 -39 6 -44 28 -44 24 0 25 3 25 55 0
49 -2 55 -23 58 -12 2 -24 -3 -28 -11z"/>
<path d="M684 457 c-3 -8 -4 -34 -2 -58 3 -39 6 -44 28 -44 24 0 25 3 25 55 0
49 -2 55 -23 58 -12 2 -24 -3 -28 -11z"/>
<path d="M834 457 c-3 -8 -4 -34 -2 -58 3 -39 6 -44 28 -44 24 0 25 3 25 55 0
49 -2 55 -23 58 -12 2 -24 -3 -28 -11z"/>
<path d="M984 457 c-3 -8 -4 -34 -2 -58 3 -39 6 -44 28 -44 24 0 25 3 25 55 0
49 -2 55 -23 58 -12 2 -24 -3 -28 -11z"/>
<path d="M1134 457 c-3 -8 -4 -34 -2 -58 3 -39 6 -44 28 -44 24 0 25 3 25 55
0 49 -2 55 -23 58 -12 2 -24 -3 -28 -11z"/>
<path d="M1284 457 c-3 -8 -4 -34 -2 -58 3 -39 6 -44 28 -44 24 0 25 3 25 55
0 49 -2 55 -23 58 -12 2 -24 -3 -28 -11z"/>
<path d="M1434 457 c-3 -8 -4 -34 -2 -58 3 -39 6 -44 28 -44 24 0 25 3 25 55
0 49 -2 55 -23 58 -12 2 -24 -3 -28 -11z"/>
<path d="M1584 457 c-3 -8 -4 -34 -2 -58 3 -39 6 -44 28 -44 24 0 25 3 25 55
0 49 -2 55 -23 58 -12 2 -24 -3 -28 -11z"/>
</g>
</svg>
