<?xml version="1.0" standalone="no"?>
<!DOCTYPE svg PUBLIC "-//W3C//DTD SVG 20010904//EN"
 "http://www.w3.org/TR/2001/REC-SVG-20010904/DTD/svg10.dtd">
<svg version="1.0" xmlns="http://www.w3.org/2000/svg"
 width="900.000000pt" height="900.000000pt" viewBox="0 0 900.000000 900.000000"
 preserveAspectRatio="xMidYMid meet">
<metadata>
Created by potrace 1.10, written by Peter Selinger 2001-2011
</metadata>
<g transform="translate(0.000000,900.000000) scale(0.100000,-0.100000)"
fill="#000000" stroke="none">
<path d="M340 8985 c0 -8 -5 -15 -11 -15 -5 0 -23 -15 -40 -32 l-29 -32 0
-4418 0 -4417 35 -36 36 -35 3282 3 c2191 3 3302 7 3342 14 76 13 182 37 226
52 162 52 224 75 284 104 28 14 57 28 65 31 8 4 24 12 35 19 11 7 43 25 70 41
277 161 552 476 722 826 76 158 87 184 148 370 97 296 170 655 190 935 3 44
10 127 15 185 12 141 12 660 -1 785 -5 55 -13 143 -18 195 -12 155 -31 171
-221 194 -194 23 -345 45 -425 62 -153 31 -222 47 -270 61 -159 45 -165 47
-272 87 -235 88 -444 212 -546 325 l-37 41 0 1568 c0 1398 -2 1570 -15 1590
-14 18 -70 74 -234 232 -14 14 -111 106 -216 205 -104 99 -234 222 -289 275
-140 135 -143 138 -231 220 -85 78 -257 243 -440 420 -61 59 -121 112 -133
119 -12 6 -22 18 -22 26 0 13 -311 15 -2500 15 -2216 0 -2500 -2 -2500 -15z
m4808 -272 c5 -10 10 -227 12 -483 1 -256 5 -561 9 -677 l6 -213 33 -32 33
-33 704 3 704 4 6 -24 c3 -12 4 -682 3 -1487 l-3 -1464 -62 -57 c-142 -130
-395 -263 -628 -330 -16 -4 -43 -13 -60 -19 -16 -5 -59 -17 -95 -26 -36 -9
-88 -23 -116 -31 -28 -8 -59 -14 -70 -14 -10 0 -48 -6 -84 -14 -100 -23 -243
-46 -286 -46 -73 -1 -269 -35 -289 -50 -48 -36 -55 -54 -71 -191 -11 -99 -15
-236 -16 -530 0 -401 7 -530 48 -824 31 -227 98 -529 149 -675 7 -19 18 -51
24 -70 7 -19 16 -48 21 -65 19 -72 155 -363 211 -450 10 -16 22 -37 26 -45 11
-22 91 -139 138 -200 51 -66 195 -212 262 -266 26 -22 55 -45 63 -53 8 -8 36
-27 62 -43 101 -62 304 -58 -2650 -58 -2085 0 -2701 3 -2710 12 -17 17 -17
8439 0 8456 9 9 537 12 2315 12 2183 0 2303 -1 2311 -17z m391 -273 c32 -31
398 -379 427 -405 6 -5 98 -94 205 -196 107 -102 215 -205 242 -228 26 -24 47
-49 47 -56 0 -17 -128 -23 -612 -29 -298 -3 -391 -1 -404 8 -15 12 -17 56 -22
494 -3 264 -2 488 2 498 7 18 11 16 115 -86z m1282 -4386 c19 -23 154 -124
216 -162 79 -47 288 -147 373 -176 153 -54 190 -65 365 -111 137 -36 546 -105
617 -105 49 0 53 -37 53 -500 0 -411 -5 -500 -41 -770 -21 -161 -61 -370 -89
-470 -7 -25 -21 -74 -30 -110 -165 -604 -504 -1050 -957 -1259 -183 -85 -374
-131 -537 -131 -330 0 -702 169 -968 439 -65 66 -223 260 -223 275 0 3 -12 24
-27 48 -44 67 -49 78 -96 173 -51 102 -76 163 -131 313 -37 101 -92 312 -120
457 -47 247 -74 484 -82 710 -3 99 -8 196 -10 215 -6 56 17 573 28 593 5 10
20 17 36 17 15 0 68 7 117 15 50 8 133 22 185 31 154 26 271 52 410 91 130 36
237 72 320 105 102 41 271 124 315 154 20 13 38 24 41 24 8 0 158 116 173 134
7 9 21 16 31 16 10 0 24 -7 31 -16z"/>
<path d="M874 5603 c-34 -17 -74 -77 -74 -112 0 -35 36 -95 68 -113 28 -17
105 -18 1227 -18 1305 0 1231 -3 1270 57 24 36 25 112 1 148 -38 57 19 55
-1273 54 -1057 0 -1191 -2 -1219 -16z"/>
<path d="M1425 4280 c-308 -3 -561 -6 -562 -8 -27 -25 -63 -92 -63 -117 0 -48
48 -108 97 -123 58 -17 2928 -17 2985 0 77 23 115 106 80 175 -38 74 47 67
-1016 73 -529 3 -1213 3 -1521 0z"/>
<path d="M895 2945 c-22 -8 -41 -15 -42 -15 -11 -1 -53 -85 -53 -106 0 -38 36
-96 71 -117 29 -16 129 -17 1646 -17 1792 0 1643 -6 1692 66 41 59 16 152 -49
186 -39 21 -3208 23 -3265 3z"/>
<path d="M860 1319 c-38 -32 -60 -70 -60 -105 0 -41 37 -95 80 -116 33 -17
140 -18 1805 -18 1665 0 1772 1 1805 18 42 20 80 75 80 112 0 44 -26 94 -58
113 -28 16 -133 17 -1829 17 l-1798 -1 -25 -20z"/>
<path d="M7510 3116 c-25 -7 -60 -21 -79 -31 -19 -9 -230 -213 -469 -452 -239
-239 -440 -433 -447 -431 -7 2 -87 76 -178 164 -173 170 -212 196 -307 213
-96 17 -223 -22 -281 -86 -102 -113 -116 -261 -37 -408 12 -22 390 -399 542
-540 6 -6 57 -54 113 -108 l103 -97 52 0 53 0 636 637 c695 694 688 686 697
807 7 87 -20 163 -81 231 -55 62 -97 87 -175 104 -64 13 -84 13 -142 -3z m103
-238 c30 -16 46 -39 47 -67 0 -17 -134 -157 -564 -588 -311 -311 -570 -563
-576 -561 -6 2 -141 131 -301 287 l-290 284 3 41 c2 33 8 43 29 53 16 8 35 10
48 5 12 -4 115 -100 229 -213 114 -113 217 -211 229 -217 30 -16 78 -15 111 2
24 13 366 353 828 824 87 89 165 162 172 162 7 0 23 -5 35 -12z"/>
</g>
</svg>
