<?xml version="1.0" standalone="no"?>
<!DOCTYPE svg PUBLIC "-//W3C//DTD SVG 20010904//EN"
 "http://www.w3.org/TR/2001/REC-SVG-20010904/DTD/svg10.dtd">
<svg version="1.0" xmlns="http://www.w3.org/2000/svg"
 width="900.000000pt" height="900.000000pt" viewBox="0 0 900.000000 900.000000"
 preserveAspectRatio="xMidYMid meet">
<metadata>
Created by potrace 1.10, written by Peter Selinger 2001-2011
</metadata>
<g transform="translate(0.000000,900.000000) scale(0.100000,-0.100000)"
fill="#000000" stroke="none">
<path d="M4247 8986 c-4 -9 -29 -16 -69 -20 -137 -14 -370 -82 -533 -155 -263
-118 -472 -265 -671 -472 -188 -197 -309 -382 -423 -648 -23 -52 -41 -100 -41
-107 0 -8 -6 -28 -14 -46 -60 -143 -101 -407 -101 -648 0 -275 45 -526 131
-728 8 -18 14 -38 14 -44 0 -6 30 -70 66 -142 72 -145 73 -146 127 -229 36
-56 44 -77 30 -77 -5 0 -505 -1 -1113 -3 l-1105 -2 -70 -23 c-231 -75 -404
-252 -461 -468 -21 -82 -21 -3645 0 -3727 30 -114 102 -232 193 -318 48 -46
156 -119 175 -119 8 0 18 -4 24 -10 5 -5 43 -19 84 -30 73 -19 111 -20 1565
-20 l1490 0 25 -23 c14 -13 57 -59 95 -102 39 -44 111 -124 160 -180 50 -55
128 -143 174 -195 46 -52 105 -117 131 -145 25 -27 80 -88 120 -135 142 -162
153 -170 240 -170 87 0 95 6 240 170 41 47 77 87 81 90 3 3 81 91 174 195 93
105 172 192 175 195 3 3 39 43 80 90 121 137 144 162 170 186 l25 24 1490 0
c1454 0 1492 1 1565 20 41 11 79 25 84 30 6 6 16 10 23 10 21 0 117 64 170
113 93 86 180 227 197 320 4 23 13 37 21 37 13 0 15 235 15 1830 0 1424 -3
1829 -12 1827 -7 -1 -17 18 -24 44 -6 25 -27 76 -45 112 -83 168 -225 287
-414 349 l-70 23 -1090 3 c-599 1 -1100 2 -1112 2 -32 0 -28 15 27 100 53 82
159 288 185 360 39 110 85 256 85 273 0 9 7 43 15 75 24 96 45 290 45 415 0
193 -48 491 -105 647 -122 339 -250 554 -466 784 -224 238 -457 397 -774 525
-119 49 -335 105 -448 117 -37 3 -60 11 -64 20 -8 21 -478 21 -486 0z m528
-372 c131 -23 263 -59 360 -99 44 -18 208 -99 240 -118 238 -142 455 -355 600
-588 45 -73 117 -216 138 -275 95 -265 117 -384 117 -641 0 -196 -8 -266 -50
-433 -31 -123 -57 -193 -123 -330 -152 -315 -418 -599 -707 -756 -19 -10 -42
-24 -50 -30 -31 -22 -280 -120 -340 -134 -19 -4 -55 -13 -80 -19 -129 -31
-219 -41 -388 -41 -200 0 -367 23 -507 71 -16 6 -43 14 -60 19 -44 11 -188 75
-264 116 -184 101 -383 263 -507 413 -74 90 -173 240 -218 331 -21 41 -42 83
-47 92 -37 71 -98 276 -123 418 -22 117 -22 443 0 560 46 255 133 478 266 681
124 190 319 383 508 505 70 45 79 50 175 97 169 84 236 107 465 158 125 27
443 29 595 3z m-1672 -3306 c12 -6 65 -44 117 -83 140 -106 211 -149 360 -221
41 -19 83 -40 92 -45 51 -27 233 -85 363 -115 99 -23 354 -54 450 -54 157 0
375 30 550 77 90 24 239 74 273 92 9 5 49 24 87 42 107 50 258 144 381 236
l111 83 1224 0 c982 -1 1235 -3 1280 -14 98 -24 175 -88 221 -184 l23 -47 0
-1770 0 -1770 -28 -54 c-36 -67 -81 -112 -148 -148 l-54 -28 -1555 -5 c-1427
-5 -1558 -6 -1585 -22 -17 -9 -62 -51 -100 -94 -126 -141 -347 -388 -419 -468
-39 -44 -91 -102 -116 -130 -25 -28 -66 -73 -92 -101 l-48 -50 -47 50 c-27 28
-68 73 -93 101 -86 96 -186 208 -325 364 -77 86 -171 191 -209 234 -38 42 -83
85 -100 94 -29 16 -152 17 -1586 22 l-1555 5 -54 28 c-67 36 -112 81 -148 148
l-28 54 0 1770 0 1770 23 47 c45 94 123 161 217 183 70 18 2486 21 2518 3z"/>
<path d="M4350 8223 c-181 -42 -299 -117 -426 -269 -19 -23 -34 -45 -34 -49 0
-5 -6 -16 -13 -24 -43 -51 -97 -243 -97 -345 0 -117 115 -208 223 -177 74 22
127 91 127 165 0 140 103 288 238 339 57 23 188 23 244 0 135 -53 238 -199
238 -337 0 -76 -48 -191 -102 -243 -77 -73 -150 -104 -274 -118 -70 -8 -108
-35 -143 -103 -20 -39 -21 -56 -21 -347 0 -292 1 -308 21 -347 26 -50 41 -66
85 -90 63 -34 155 -15 202 42 44 54 47 68 52 299 l5 224 50 17 c192 63 364
236 434 435 119 339 -43 719 -374 875 -135 63 -303 84 -435 53z"/>
<path d="M4415 5883 c-40 -21 -59 -42 -84 -91 -26 -51 -26 -81 -2 -135 44 -97
142 -132 239 -86 46 23 75 60 94 121 19 65 -28 156 -99 192 -40 20 -109 20
-148 -1z"/>
<path d="M1775 4290 c-381 -85 -673 -364 -778 -740 -80 -288 -15 -621 168
-865 201 -270 490 -415 824 -415 122 0 244 19 324 49 82 32 120 50 184 88 39
24 76 43 81 43 5 0 44 -33 86 -74 85 -83 143 -113 199 -102 71 13 140 82 153
153 11 57 -19 114 -102 195 -71 70 -87 101 -65 124 6 5 26 39 45 75 94 182
134 408 105 601 -50 345 -255 630 -564 786 -187 95 -454 128 -660 82z m411
-361 c188 -66 318 -178 399 -345 42 -87 74 -212 75 -292 0 -100 -55 -294 -88
-307 -9 -3 -44 23 -94 72 -118 117 -161 133 -250 93 -50 -22 -67 -39 -91 -92
-37 -80 -12 -144 99 -256 41 -40 74 -80 74 -87 0 -15 -57 -44 -140 -71 -79
-26 -293 -26 -370 0 -161 55 -309 165 -377 281 -63 108 -84 167 -105 304 -19
121 21 284 105 426 82 140 282 271 452 296 84 12 245 1 311 -22z"/>
<path d="M3489 4285 c-20 -13 -46 -39 -58 -58 -21 -34 -21 -39 -21 -703 0
-637 1 -672 20 -738 11 -38 24 -74 30 -80 5 -5 10 -16 10 -22 0 -21 60 -105
119 -166 102 -108 241 -190 386 -229 101 -27 279 -26 382 2 242 66 446 230
527 424 48 115 49 124 53 789 4 564 2 635 -12 680 -9 28 -24 59 -33 70 -29 32
-89 56 -140 56 -61 0 -121 -40 -152 -99 -19 -39 -20 -57 -20 -674 0 -626 0
-635 -21 -683 -23 -50 -111 -147 -151 -164 -13 -5 -30 -14 -38 -19 -58 -35
-107 -45 -211 -45 -104 0 -109 1 -181 37 -84 43 -157 108 -190 170 l-23 42 -5
650 c-5 625 -6 652 -25 690 -45 89 -165 124 -246 70z"/>
<path d="M5644 4281 c-22 -15 -49 -41 -59 -57 -20 -28 -20 -52 -20 -935 l0
-906 29 -37 c41 -55 82 -76 144 -76 59 0 103 23 144 75 l23 30 0 915 0 915
-23 30 c-62 79 -166 99 -238 46z"/>
<path d="M6663 4292 c-53 -29 -93 -96 -93 -155 0 -40 30 -106 59 -131 47 -43
78 -46 464 -46 312 0 368 -2 373 -14 3 -9 -30 -70 -79 -143 -197 -300 -222
-339 -227 -348 -3 -6 -30 -49 -61 -95 -31 -47 -96 -146 -145 -220 -49 -74 -91
-140 -94 -145 -3 -6 -30 -48 -61 -95 -253 -384 -269 -411 -269 -460 0 -44 37
-108 81 -139 l42 -31 623 0 622 0 44 33 c87 66 98 186 23 259 -57 56 -64 56
-502 57 -244 1 -404 5 -408 11 -5 9 26 61 180 295 39 61 106 162 147 225 41
63 101 155 134 205 32 49 61 94 64 100 5 10 61 95 259 395 137 208 140 212
148 272 9 63 -31 138 -90 170 -29 16 -84 17 -617 17 -533 0 -588 -1 -617 -17z"/>
</g>
</svg>
