<?xml version="1.0" standalone="no"?>
<!DOCTYPE svg PUBLIC "-//W3C//DTD SVG 20010904//EN"
 "http://www.w3.org/TR/2001/REC-SVG-20010904/DTD/svg10.dtd">
<svg version="1.0" xmlns="http://www.w3.org/2000/svg"
 width="300.000000pt" height="300.000000pt" viewBox="0 0 300.000000 300.000000"
 preserveAspectRatio="xMidYMid meet">
<metadata>
Created by potrace 1.10, written by Peter Selinger 2001-2011
</metadata>
<g transform="translate(0.000000,300.000000) scale(0.050000,-0.050000)"
fill="#000000" stroke="none">
<path d="M2710 5968 c-888 -183 -1359 -1168 -952 -1992 l95 -195 -773 -5 -773
-6 -98 -60 c-71 -44 -112 -90 -153 -168 l-56 -107 0 -1202 c0 -1312 0 -1308
116 -1438 144 -159 105 -154 1247 -155 l1013 0 276 -310 c374 -420 323 -420
697 0 l275 310 1013 0 c1142 1 1103 -4 1247 155 116 130 116 126 116 1438 l0
1202 -56 107 c-41 78 -82 124 -153 168 l-98 60 -773 6 -773 5 95 195 c519
1052 -385 2228 -1532 1992z m568 -239 c871 -205 1178 -1317 539 -1950 -734
-726 -1979 -206 -1977 827 2 748 704 1296 1438 1123z m-1116 -2246 c517 -370
1178 -370 1672 -1 l104 78 812 0 c871 0 908 -4 977 -102 30 -42 33 -170 33
-1254 l0 -1207 -58 -59 -59 -58 -1051 0 -1051 0 -59 -55 c-33 -30 -151 -158
-263 -285 -113 -126 -211 -230 -219 -230 -8 0 -106 104 -219 230 -112 127
-230 255 -263 285 l-59 55 -1051 0 -1051 0 -59 58 -58 59 0 1207 c0 1083 3
1212 33 1254 68 97 100 100 969 101 l811 1 109 -77z"/>
<path d="M2880 5482 c-263 -86 -446 -398 -311 -533 75 -75 191 -29 191 77 0
66 58 164 118 200 211 125 449 -113 321 -322 -40 -66 -142 -124 -217 -124
-106 0 -157 -465 -62 -560 108 -108 200 -19 201 195 l1 155 99 47 c485 227
168 1032 -341 865z"/>
<path d="M2920 3900 c-96 -96 7 -240 126 -177 112 59 78 217 -46 217 -22 0
-58 -18 -80 -40z"/>
<path d="M1105 2842 c-568 -211 -610 -991 -68 -1256 163 -80 423 -81 582 -2
l108 54 67 -59 c156 -136 302 13 166 168 l-60 68 54 117 c240 525 -307 1111
-849 910z m449 -262 c174 -100 259 -303 207 -495 -27 -101 -27 -101 -114 -25
-159 139 -304 -11 -164 -170 34 -39 59 -74 55 -78 -138 -119 -455 -41 -577
142 -259 392 185 860 593 626z"/>
<path d="M2313 2843 c-48 -52 -49 -905 -2 -1019 137 -328 590 -405 850 -145
126 126 139 190 139 700 0 462 -10 501 -129 501 -100 0 -111 -50 -111 -522 0
-408 -2 -436 -42 -486 -110 -140 -351 -151 -459 -20 -23 26 -31 137 -39 503
-9 434 -13 470 -49 497 -53 39 -118 35 -158 -9z"/>
<path d="M3753 2843 c-53 -58 -50 -1242 4 -1290 46 -42 111 -42 152 -2 47 48
47 1250 0 1298 -43 42 -115 39 -156 -6z"/>
<path d="M4420 2840 c-124 -124 -5 -200 309 -200 138 0 251 -5 251 -12 0 -7
-139 -226 -310 -487 -325 -497 -329 -505 -279 -577 31 -43 40 -44 456 -44 466
0 498 7 498 110 0 110 -55 130 -366 130 l-277 0 296 455 c389 598 369 558 302
625 -37 37 -67 40 -440 40 -373 0 -403 -3 -440 -40z"/>
</g>
</svg>
