<?xml version="1.0" standalone="no"?>
<!DOCTYPE svg PUBLIC "-//W3C//DTD SVG 20010904//EN"
 "http://www.w3.org/TR/2001/REC-SVG-20010904/DTD/svg10.dtd">
<svg version="1.0" xmlns="http://www.w3.org/2000/svg"
 width="173.000000pt" height="148.000000pt" viewBox="0 0 173.000000 148.000000"
 preserveAspectRatio="xMidYMid meet">
<metadata>
Created by potrace 1.10, written by Peter Selinger 2001-2011
</metadata>
<g transform="translate(0.000000,148.000000) scale(0.100000,-0.100000)"
fill="#000000" stroke="none">
<path d="M625 1146 l-230 -133 0 -273 0 -273 230 -133 c127 -73 233 -133 238
-134 7 0 100 52 342 192 l130 76 0 272 0 273 -230 133 c-126 73 -234 133 -240
133 -5 0 -113 -60 -240 -133z m331 31 c49 -29 140 -81 202 -116 62 -35 112
-64 110 -66 -2 -1 -39 -22 -83 -45 -44 -24 -107 -60 -140 -80 -33 -20 -87 -51
-121 -69 l-61 -32 -193 111 c-107 60 -198 110 -202 110 -4 0 -8 5 -8 10 0 6 5
10 11 10 12 0 317 171 359 201 14 10 28 19 31 19 4 0 46 -24 95 -53z m-326
-330 c25 -14 82 -46 128 -72 l82 -46 0 -234 0 -235 -52 33 c-29 18 -119 71
-200 118 l-148 84 0 232 0 231 73 -42 c39 -24 92 -55 117 -69z m660 -119 l0
-233 -123 -70 c-67 -38 -157 -91 -199 -117 l-78 -47 0 233 0 234 188 107 c103
59 191 111 197 116 5 5 10 9 12 9 2 0 3 -105 3 -232z"/>
<path d="M760 1084 c-40 -17 -70 -42 -70 -58 0 -6 7 -19 14 -29 12 -15 18 -16
40 -6 18 9 25 18 21 30 -8 23 26 42 61 33 23 -6 25 -10 20 -40 -8 -42 22 -69
60 -52 21 10 22 13 10 27 -8 10 -12 28 -9 49 5 29 2 33 -31 47 -44 19 -71 18
-116 -1z"/>
<path d="M933 953 c-22 -8 -14 -32 11 -39 13 -3 34 -1 46 6 40 21 -12 52 -57
33z"/>
<path d="M572 768 c-19 -19 -14 -46 10 -59 16 -9 23 -9 26 0 10 29 62 -8 62
-45 0 -13 -11 -24 -30 -31 -38 -14 -41 -53 -6 -77 23 -15 25 -15 28 6 2 14 12
24 28 28 55 13 28 130 -37 163 -46 24 -68 28 -81 15z"/>
<path d="M606 531 c-9 -14 11 -61 30 -68 29 -11 40 14 18 44 -23 30 -39 39
-48 24z"/>
<path d="M1086 757 c-39 -22 -98 -108 -84 -122 9 -9 58 24 58 40 0 15 32 45
48 45 20 0 13 -38 -13 -79 -30 -44 -49 -101 -34 -101 22 0 49 22 49 40 0 11
14 41 30 67 44 69 40 134 -8 133 -4 0 -25 -10 -46 -23z"/>
<path d="M1064 505 c-18 -28 -13 -55 10 -55 18 0 45 49 39 68 -7 20 -31 14
-49 -13z"/>
</g>
</svg>
