<?xml version="1.0" standalone="no"?>
<!DOCTYPE svg PUBLIC "-//W3C//DTD SVG 20010904//EN"
 "http://www.w3.org/TR/2001/REC-SVG-20010904/DTD/svg10.dtd">
<svg version="1.0" xmlns="http://www.w3.org/2000/svg"
 width="300.000000pt" height="300.000000pt" viewBox="0 0 300.000000 300.000000"
 preserveAspectRatio="xMidYMid meet">
<metadata>
Created by potrace 1.10, written by Peter Selinger 2001-2011
</metadata>
<g transform="translate(0.000000,300.000000) scale(0.100000,-0.100000)"
fill="#000000" stroke="none">
<path d="M1383 2936 c-65 -21 -124 -60 -174 -113 -56 -60 -88 -124 -102 -209
-11 -64 -11 -67 12 -85 19 -15 40 -19 105 -19 97 0 126 14 126 63 0 72 71 137
150 137 156 0 208 -204 70 -277 -24 -13 -56 -23 -72 -23 -41 0 -85 -26 -103
-60 -20 -38 -22 -489 -3 -508 8 -8 47 -12 108 -12 61 0 100 4 108 12 8 8 12
62 12 175 l0 163 52 26 c156 79 250 255 221 413 -25 129 -113 245 -230 299
-70 32 -210 41 -280 18z m252 -110 c136 -67 199 -224 148 -372 -23 -69 -101
-144 -178 -173 -33 -12 -63 -28 -67 -34 -4 -7 -8 -83 -8 -169 l0 -158 -30 0
-30 0 0 188 c0 204 2 212 55 212 74 0 169 71 203 150 18 44 18 136 0 180 -54
128 -206 185 -334 126 -55 -26 -108 -82 -125 -133 -9 -27 -16 -33 -40 -33 -34
0 -33 -4 -14 51 59 166 257 244 420 165z"/>
<path d="M265 2463 c-6 -5 -21 -23 -34 -40 -12 -18 -43 -45 -69 -60 -47 -26
-72 -49 -72 -65 0 -5 26 -34 57 -66 32 -32 67 -74 78 -93 30 -51 53 -49 107
14 25 29 64 61 87 71 22 11 43 27 46 37 6 19 -10 59 -24 59 -16 0 -82 72 -99
108 -17 37 -53 53 -77 35z m39 -203 l-25 -25 -24 29 -23 29 27 23 26 23 22
-27 22 -27 -25 -25z"/>
<path d="M2692 2400 c-24 -21 -60 -44 -80 -51 -51 -16 -82 -37 -82 -55 0 -9
18 -36 40 -61 22 -25 45 -64 52 -87 13 -47 35 -76 56 -76 7 0 34 18 59 39 24
22 67 47 94 56 75 25 84 60 29 110 -25 23 -60 87 -60 110 0 18 -35 55 -52 55
-7 -1 -32 -18 -56 -40z m53 -127 c17 -25 17 -27 -6 -44 -31 -24 -34 -24 -54 8
-17 25 -17 27 6 44 31 24 34 24 54 -8z"/>
<path d="M2425 2181 c-129 -37 -232 -100 -327 -198 -52 -53 -118 -146 -118
-165 0 -4 17 -17 39 -27 l39 -20 36 59 c74 119 224 226 369 264 33 8 61 17 64
20 3 2 2 23 -2 45 -8 47 -11 48 -100 22z"/>
<path d="M490 2177 c0 -8 -3 -28 -6 -44 -6 -30 -5 -31 63 -51 160 -50 299
-167 374 -319 l45 -90 39 14 c21 7 40 15 43 18 10 9 -80 174 -125 230 -101
125 -250 217 -400 250 -25 5 -33 3 -33 -8z"/>
<path d="M1450 1773 c-24 -9 -61 -46 -76 -75 -60 -115 82 -246 194 -178 117
72 80 247 -55 256 -26 2 -55 1 -63 -3z m80 -103 c11 -11 20 -24 20 -30 0 -5
-9 -19 -20 -30 -11 -11 -24 -20 -30 -20 -5 0 -19 9 -30 20 -11 11 -20 25 -20
30 0 6 9 19 20 30 11 11 25 20 30 20 6 0 19 -9 30 -20z"/>
<path d="M1100 1605 c-30 -7 -158 -34 -284 -61 l-229 -48 -153 -153 c-88 -88
-154 -162 -154 -172 0 -29 22 -41 132 -69 l103 -27 3 -361 c2 -274 5 -364 15
-372 14 -12 942 -292 967 -292 26 0 953 280 967 292 10 8 13 99 15 372 l3 361
103 27 c111 28 132 40 132 69 0 12 -63 82 -153 173 l-154 153 -104 22 c-57 12
-185 39 -284 59 -122 26 -182 35 -187 28 -3 -6 -9 -27 -13 -46 l-6 -35 165
-34 c92 -19 164 -36 162 -38 -2 -2 -148 -34 -325 -72 l-321 -67 -321 67 c-177
38 -323 70 -325 72 -2 2 70 19 162 38 l165 34 -6 35 c-11 57 -14 58 -75 45z
m-85 -285 c208 -44 382 -80 387 -80 18 0 5 -24 -73 -132 -48 -67 -87 -112 -96
-111 -23 2 -797 195 -802 200 -6 4 190 203 199 203 4 0 177 -36 385 -80z
m1460 -20 c54 -54 97 -101 94 -103 -5 -5 -779 -198 -802 -200 -14 -2 -177 212
-177 232 0 6 723 166 770 170 9 0 60 -44 115 -99z m-1028 -1137 c-3 -3 -410
117 -739 218 l-98 30 0 319 c0 176 2 320 5 320 3 0 149 -36 325 -80 176 -44
326 -80 334 -80 8 0 50 49 93 109 l78 109 3 -471 c1 -258 1 -472 -1 -474z
m202 815 c34 -49 69 -88 77 -88 8 0 158 36 334 80 176 44 322 80 325 80 3 0 5
-144 5 -320 l0 -319 -97 -30 c-75 -23 -623 -187 -725 -217 -17 -5 -18 22 -18
472 0 462 1 476 18 453 10 -13 46 -63 81 -111z"/>
</g>
</svg>
