<?xml version="1.0" standalone="no"?>
<!DOCTYPE svg PUBLIC "-//W3C//DTD SVG 20010904//EN"
 "http://www.w3.org/TR/2001/REC-SVG-20010904/DTD/svg10.dtd">
<svg version="1.0" xmlns="http://www.w3.org/2000/svg"
 width="300.000000pt" height="300.000000pt" viewBox="0 0 300.000000 300.000000"
 preserveAspectRatio="xMidYMid meet">
<metadata>
Created by potrace 1.10, written by Peter Selinger 2001-2011
</metadata>
<g transform="translate(0.000000,300.000000) scale(0.100000,-0.100000)"
fill="#000000" stroke="none">
<path d="M541 2916 c-29 -16 -50 -52 -51 -88 0 -29 82 -158 141 -220 29 -31
43 -38 73 -38 21 0 46 5 57 10 22 12 49 60 49 89 0 25 -91 161 -145 218 -45
46 -78 54 -124 29z"/>
<path d="M2335 2887 c-54 -57 -145 -193 -145 -218 0 -29 27 -77 49 -89 11 -5
36 -10 57 -10 30 0 44 7 73 38 55 58 141 191 141 217 0 59 -47 105 -106 105
-19 0 -40 -13 -69 -43z"/>
<path d="M1393 2745 c-30 -15 -61 -41 -76 -63 -14 -20 -76 -138 -137 -262
l-113 -226 -261 -37 c-280 -41 -325 -54 -372 -110 -60 -71 -75 -177 -37 -252
11 -21 107 -125 213 -231 l193 -191 -43 -244 c-47 -274 -50 -330 -21 -388 26
-51 95 -109 145 -122 82 -22 119 -10 375 124 l241 126 240 -126 c170 -88 254
-127 285 -131 132 -14 255 92 256 221 1 29 -18 162 -41 296 l-43 244 193 191
c106 106 202 210 213 231 38 75 23 181 -37 252 -48 57 -92 70 -372 110 l-261
37 -113 226 c-61 124 -123 242 -137 262 -35 52 -111 88 -183 88 -40 0 -71 -7
-107 -25z m263 -447 c89 -177 141 -271 155 -279 12 -6 153 -31 312 -54 293
-43 316 -49 297 -85 -5 -9 -101 -107 -214 -216 -129 -126 -207 -210 -211 -227
-4 -16 12 -136 40 -300 26 -151 45 -285 43 -298 -1 -13 -10 -25 -18 -27 -9 -1
-132 58 -273 133 -164 86 -268 135 -287 135 -19 0 -123 -49 -286 -135 -141
-75 -264 -135 -273 -133 -9 2 -18 14 -19 27 -2 13 17 147 43 298 29 166 44
284 40 300 -4 18 -81 100 -211 227 -113 109 -209 207 -214 216 -19 36 4 42
297 85 159 23 299 47 311 54 15 8 67 101 158 282 118 237 137 270 156 267 17
-2 48 -58 154 -270z"/>
<path d="M160 1280 c-128 -44 -160 -69 -160 -125 0 -40 38 -90 76 -99 16 -4
63 6 133 28 146 47 158 53 176 93 20 41 13 82 -19 112 -38 36 -80 34 -206 -9z"/>
<path d="M2670 1313 c-56 -20 -81 -82 -55 -137 19 -39 11 -35 165 -87 130 -45
156 -44 196 4 21 25 25 38 21 70 -3 21 -13 47 -22 57 -17 19 -245 101 -275 99
-8 0 -22 -3 -30 -6z"/>
<path d="M1433 446 c-28 -24 -28 -26 -31 -156 -4 -148 4 -182 49 -205 35 -19
63 -19 98 0 45 23 53 57 49 205 -3 130 -3 132 -31 156 -19 16 -40 24 -67 24
-27 0 -48 -8 -67 -24z"/>
</g>
</svg>
