<?xml version="1.0" standalone="no"?>
<!DOCTYPE svg PUBLIC "-//W3C//DTD SVG 20010904//EN"
 "http://www.w3.org/TR/2001/REC-SVG-20010904/DTD/svg10.dtd">
<svg version="1.0" xmlns="http://www.w3.org/2000/svg"
 width="300.000000pt" height="263.000000pt" viewBox="0 0 300.000000 263.000000"
 preserveAspectRatio="xMidYMid meet">
<metadata>
Created by potrace 1.10, written by Peter Selinger 2001-2011
</metadata>
<g transform="translate(0.000000,263.000000) scale(0.100000,-0.100000)"
fill="#000000" stroke="none">
<path d="M805 2141 c-72 -18 -123 -60 -150 -123 -13 -32 -15 -109 -15 -540 0
-315 4 -517 10 -540 26 -92 99 -137 236 -145 l94 -6 0 -143 c0 -132 2 -146 21
-165 13 -13 27 -18 40 -14 10 4 114 78 229 165 l210 159 342 3 c325 3 345 4
389 24 56 26 94 74 108 134 14 61 14 979 0 1040 -13 57 -49 104 -102 133 l-42
22 -670 2 c-368 1 -683 -2 -700 -6z m1396 -129 l29 -32 0 -511 0 -511 -34 -34
-34 -34 -355 0 -354 0 -184 -139 -184 -139 -3 121 c-4 161 0 157 -155 157
l-119 0 -34 34 -34 34 0 510 c0 505 0 510 21 536 12 15 31 32 43 36 11 5 324
8 694 7 l674 -2 29 -33z"/>
<path d="M1039 1698 c-2 -184 4 -374 12 -397 27 -69 101 -111 199 -110 109 0
167 30 201 104 16 35 19 68 19 248 l0 207 -54 0 -54 0 -4 -204 c-3 -198 -4
-205 -26 -229 -29 -31 -68 -39 -117 -26 -58 16 -65 45 -65 269 l0 190 -55 0
-55 0 -1 -52z"/>
<path d="M1550 1700 l0 -49 134 -3 134 -3 -139 -175 c-134 -169 -139 -177
-139 -222 l0 -48 210 0 210 0 0 50 0 50 -135 0 c-74 0 -135 2 -135 5 0 3 61
81 135 175 133 167 135 170 135 220 l0 50 -205 0 -205 0 0 -50z"/>
</g>
</svg>
