<?xml version="1.0" standalone="no"?>
<!DOCTYPE svg PUBLIC "-//W3C//DTD SVG 20010904//EN"
 "http://www.w3.org/TR/2001/REC-SVG-20010904/DTD/svg10.dtd">
<svg version="1.0" xmlns="http://www.w3.org/2000/svg"
 width="144.000000pt" height="144.000000pt" viewBox="0 0 144.000000 144.000000"
 preserveAspectRatio="xMidYMid meet">
<metadata>
Created by potrace 1.10, written by Peter Selinger 2001-2011
</metadata>
<g transform="translate(0.000000,144.000000) scale(0.100000,-0.100000)"
fill="#000000" stroke="none">
<path d="M274 1318 c-17 -12 -40 -36 -52 -55 -22 -33 -22 -36 -20 -441 l3
-407 25 0 25 0 5 408 5 409 28 24 28 24 417 -2 417 -3 0 -460 0 -460 -435 -5
c-388 -4 -438 -7 -459 -22 -84 -60 -80 -175 8 -229 30 -18 53 -19 489 -17
l457 3 0 25 0 25 -457 5 -456 5 -21 24 c-28 32 -26 65 4 96 l26 25 425 0 426
0 29 29 29 29 0 467 0 467 -29 29 -29 29 -429 -1 c-419 0 -429 -1 -459 -21z"/>
<path d="M525 1004 c-9 -15 -21 -38 -25 -53 -5 -14 -18 -51 -30 -81 -12 -30
-25 -70 -30 -88 -4 -18 -13 -38 -18 -45 -17 -21 -26 -104 -11 -112 15 -10 59
38 59 65 0 29 39 50 93 50 60 0 83 -12 90 -47 4 -15 15 -39 26 -53 19 -24 21
-24 37 -8 19 19 16 33 -36 168 -11 30 -28 73 -36 95 -9 22 -19 51 -22 65 -19
70 -66 91 -97 44z m60 -101 c4 -16 13 -43 21 -61 8 -18 12 -38 9 -43 -4 -5
-26 -9 -51 -9 -47 0 -68 20 -45 43 6 6 11 20 11 32 0 23 26 65 40 65 5 0 12
-12 15 -27z"/>
<path d="M808 890 c-16 -17 -28 -36 -25 -43 6 -20 35 -19 56 2 23 23 80 28 99
9 7 -7 12 -22 12 -34 0 -19 -6 -22 -58 -26 -81 -6 -122 -35 -122 -88 0 -30 6
-43 31 -64 36 -30 83 -34 111 -9 18 16 21 16 48 -1 17 -9 35 -14 40 -11 6 4
10 56 10 123 0 112 -1 117 -27 144 -23 24 -34 28 -86 28 -52 0 -62 -3 -89 -30z
m137 -141 c4 -5 4 -21 1 -34 -12 -48 -116 -53 -116 -5 0 34 98 67 115 39z"/>
</g>
</svg>
