<?xml version="1.0" standalone="no"?>
<!DOCTYPE svg PUBLIC "-//W3C//DTD SVG 20010904//EN"
 "http://www.w3.org/TR/2001/REC-SVG-20010904/DTD/svg10.dtd">
<svg version="1.0" xmlns="http://www.w3.org/2000/svg"
 width="300.000000pt" height="300.000000pt" viewBox="0 0 300.000000 300.000000"
 preserveAspectRatio="xMidYMid meet">
<metadata>
Created by potrace 1.10, written by Peter Selinger 2001-2011
</metadata>
<g transform="translate(0.000000,300.000000) scale(0.050000,-0.050000)"
fill="#000000" stroke="none">
<path d="M896 5611 c-339 -95 -594 -365 -667 -706 -42 -200 -42 -3610 0 -3810
77 -363 363 -646 721 -714 86 -17 572 -21 1710 -17 l1590 6 115 46 c365 148
571 450 590 867 12 250 -23 317 -164 317 -131 0 -164 -61 -176 -331 -12 -246
-108 -400 -323 -515 l-82 -44 -1588 -5 c-1782 -7 -1699 -13 -1871 139 -51 44
-117 127 -147 184 l-54 102 0 1870 0 1870 54 102 c30 57 96 140 147 184 172
152 89 146 1871 139 l1588 -5 82 -44 c251 -134 316 -262 324 -636 3 -154 10
-300 15 -324 27 -124 190 -167 282 -75 l51 51 -8 334 c-14 540 -183 823 -591
988 l-115 46 -1630 3 c-1288 3 -1650 -1 -1724 -22z"/>
<path d="M1340 4626 c-122 -45 -159 -189 -71 -277 l49 -49 1268 0 1267 0 41
45 c88 98 67 220 -46 267 -67 28 -2433 41 -2508 14z"/>
<path d="M5030 3891 c-44 -17 -84 -31 -89 -31 -22 0 -1606 -1595 -1630 -1640
-51 -96 -118 -577 -93 -661 25 -85 135 -191 217 -212 68 -17 566 62 654 104
111 53 1597 1563 1652 1679 209 441 -251 933 -711 761z m330 -349 c134 -96
126 -237 -21 -390 l-97 -102 -161 159 -161 160 103 105 c134 134 220 152 337
68z m-515 -577 l155 -156 -535 -532 -535 -533 -189 -32 c-104 -17 -190 -29
-193 -26 -4 5 48 331 58 361 10 31 1041 1068 1064 1071 12 1 90 -68 175 -153z"/>
<path d="M1269 3751 c-67 -67 -66 -168 3 -233 l51 -48 1233 -5 c1329 -6 1321
-7 1376 99 34 66 23 125 -38 191 l-41 45 -1267 0 -1268 0 -49 -49z"/>
<path d="M1310 2957 c-103 -57 -123 -186 -41 -268 l49 -49 702 0 702 0 49 49
c81 81 65 212 -32 262 -72 37 -1362 42 -1429 6z"/>
</g>
</svg>
